<svg xmlns="http://www.w3.org/2000/svg" xmlns:xlink="http://www.w3.org/1999/xlink" width="512" height="512" class="icon" p-id="1493" t="1681726550292" version="1.1" viewBox="0 0 1024 1024"><path fill="#ED9A2B" d="M328.192 64h367.616c114.112 0 155.52 11.904 197.248 34.176 41.728 22.336 74.432 55.04 96.768 96.768 22.272 41.728 34.176 83.136 34.176 197.248v239.616c0 114.112-11.904 155.52-34.176 197.248a232.64 232.64 0 0 1-96.768 96.768c-41.728 22.272-83.136 34.176-197.248 34.176H328.192c-114.112 0-155.52-11.904-197.248-34.176a232.64 232.64 0 0 1-96.768-96.768C11.904 787.328 0 745.92 0 631.808V392.192c0-114.112 11.904-155.52 34.176-197.248a232.64 232.64 0 0 1 96.768-96.768C172.672 75.904 214.08 64 328.192 64z m330.048 475.456a32 32 0 0 0 0-54.912L432.448 349.056a32 32 0 0 0-48.448 27.52v270.912a32 32 0 0 0 48.448 27.456l225.792-135.488z" p-id="1494"/></svg>